<svg xmlns="http://www.w3.org/2000/svg" width="328" height="293"><path fill="#27a55d" d="m258.194 35.07 2.728 1.094L263 37c.094 21.645.164 43.29.207 64.936.02 10.052.049 20.103.095 30.155.04 8.767.065 17.533.074 26.3.006 4.637.018 9.273.047 13.91.027 4.376.035 8.751.03 13.127 0 1.595.008 3.19.024 4.785.167 18.148-3.874 33.544-15.961 47.619-7.257 6.254-16.302 10.159-24.891 14.23l-3.512 1.678a2411.865 2411.865 0 0 1-36.035 16.834 275.383 275.383 0 0 0-6.156 2.946L174 274.937l-2.562 1.278c-4.794 1.544-8.532-.573-12.848-2.7l-3.208-1.565-3.444-1.7a5012.326 5012.326 0 0 0-7.297-3.555l-1.896-.922c-6.81-3.307-13.683-6.478-20.557-9.648-3.42-1.587-6.838-3.177-10.256-4.767-2.479-1.148-4.964-2.282-7.452-3.413-14.032-6.598-23.318-16.184-28.855-30.758-2.124-6.102-2.75-11.876-2.745-18.324l-.003-2.107c-.001-2.317.004-4.634.01-6.95l-.001-4.998c0-4.514.006-9.028.013-13.542.006-4.72.006-9.441.008-14.162.003-8.935.01-17.87.021-26.806.011-10.174.017-20.348.022-30.522.01-20.925.028-41.85.05-62.776 2.82-1.114 5.642-2.224 8.465-3.332l2.384-.944c52.973-20.74 121.906-18.721 174.345 2.345Zm-130.452 8.075-2.604.276C114.535 44.808 104.26 48.081 94 51c-.14 20.133-.246 40.265-.31 60.398-.032 9.349-.074 18.698-.143 28.046-.06 8.153-.098 16.305-.112 24.458-.007 4.313-.026 8.626-.07 12.939a992.98 992.98 0 0 0-.044 12.203c-.001 1.485-.013 2.97-.036 4.455-.157 10.573 1.469 19.408 8.578 27.664 5.265 5.218 12.07 7.956 18.762 10.9 1.847.828 3.693 1.66 5.538 2.492 1.285.579 2.57 1.156 3.856 1.731 4.8 2.154 9.544 4.408 14.278 6.702 2.033.978 4.066 1.955 6.1 2.931 1.311.634 2.62 1.272 3.927 1.916 1.83.9 3.67 1.78 5.512 2.657l3.173 1.543c5.267 1.7 9.271.071 14.061-2.3l2.926-1.43 3.129-1.555c2.23-1.092 4.46-2.182 6.691-3.27l3.536-1.725c3.725-1.802 7.477-3.541 11.238-5.267l1.897-.871c3.037-1.394 6.077-2.782 9.12-4.163 11.59-4.923 11.59-4.923 20.706-13.267l1.363-1.832c4.728-8.41 4.739-15.921 4.665-25.4V186.4c.002-4.103-.016-8.205-.037-12.308-.019-4.295-.02-8.59-.024-12.885-.01-8.124-.034-16.248-.064-24.372-.034-9.253-.05-18.506-.065-27.758C242.12 90.05 242.067 71.026 242 52c-1.58-.644-3.16-1.285-4.741-1.925l-2.667-1.083c-20.29-7.764-43.785-7.35-65.15-7.308-3.308.003-6.615-.02-9.922-.045-10.651-.035-21.191.286-31.778 1.506Z"/><path fill="#27a55d" d="M128 132h80v69c-12 4-12 4-16 4v-57h-16v64h-16v-64h-16v57c-6 0-6 0-16-4v-69ZM160 73h16v26h15V76l7.375.938 2.318.288c5.085.663 5.085.663 7.307 1.774v37h-80V79c7-2 7-2 16-2v22h16V73Z"/></svg>